<?xml version="1.0"?>
<!-- Generated by SVGo -->
<svg width="281.465mm" height="105.252mm"
     viewBox="0.000 0.000 281.465 105.252"
     xmlns="http://www.w3.org/2000/svg" 
     xmlns:xlink="http://www.w3.org/1999/xlink">
<polygon points="276.464,100.251 5.001,100.251 5.001,5.001 276.464,5.001" style="fill:none;stroke-width:0.050000mm;stroke:black"/>
<polygon points="136.113,83.726 136.113,84.726 135.313,84.726 135.313,87.825 136.113,87.825 136.113,88.426 89.463,88.426 89.463,85.196 82.713,85.196 82.713,88.426 81.888,88.426 81.888,91.226 82.713,91.226 82.713,97.495 84.438,97.495 84.438,98.696 87.738,98.696 87.738,97.495 89.463,97.495 89.463,93.025 136.113,93.025 136.113,93.626 135.313,93.626 135.313,96.726 136.113,96.726 136.113,97.726 150.113,97.726 150.113,96.726 150.913,96.726 150.913,93.626 150.113,93.626 150.113,93.025 177.713,93.025 177.713,97.495 179.438,97.495 179.438,98.696 182.738,98.696 182.738,97.495 184.463,97.495 184.463,91.226 185.288,91.226 185.288,88.426 184.463,88.426 184.463,85.196 177.713,85.196 177.713,88.426 150.113,88.426 150.113,87.825 150.913,87.825 150.913,84.726 150.113,84.726 150.113,83.726" style="fill:none;stroke-width:0.050000mm;stroke:black"/>
<polygon points="59.913,83.726 59.913,84.726 59.113,84.726 59.113,87.825 59.913,87.825 59.913,93.626 59.113,93.626 59.113,96.726 59.913,96.726 59.913,97.726 73.913,97.726 73.913,96.726 74.713,96.726 74.713,93.626 73.913,93.626 73.913,87.825 74.713,87.825 74.713,84.726 73.913,84.726 73.913,83.726" style="fill:none;stroke-width:0.050000mm;stroke:black"/>
<polygon points="193.263,83.726 193.263,84.726 192.463,84.726 192.463,87.825 193.263,87.825 193.263,93.626 192.463,93.626 192.463,96.726 193.263,96.726 193.263,97.726 207.263,97.726 207.263,96.726 208.063,96.726 208.063,93.626 207.263,93.626 207.263,87.825 208.063,87.825 208.063,84.726 207.263,84.726 207.263,83.726" style="fill:none;stroke-width:0.050000mm;stroke:black"/>
<polygon points="17.051,64.676 17.051,65.676 16.251,65.676 16.251,68.775 17.051,68.775 17.051,74.576 16.251,74.576 16.251,77.676 17.051,77.676 17.051,78.676 31.051,78.676 31.051,77.676 31.851,77.676 31.851,74.576 31.051,74.576 31.051,68.775 31.851,68.775 31.851,65.676 31.051,65.676 31.051,64.676" style="fill:none;stroke-width:0.050000mm;stroke:black"/>
<polygon points="40.863,64.676 40.863,65.676 40.063,65.676 40.063,68.775 40.863,68.775 40.863,74.576 40.063,74.576 40.063,77.676 40.863,77.676 40.863,78.676 54.863,78.676 54.863,77.676 55.663,77.676 55.663,74.576 54.863,74.576 54.863,68.775 55.663,68.775 55.663,65.676 54.863,65.676 54.863,64.676" style="fill:none;stroke-width:0.050000mm;stroke:black"/>
<polygon points="59.913,64.676 59.913,65.676 59.113,65.676 59.113,68.775 59.913,68.775 59.913,74.576 59.113,74.576 59.113,77.676 59.913,77.676 59.913,78.676 73.913,78.676 73.913,77.676 74.713,77.676 74.713,74.576 73.913,74.576 73.913,68.775 74.713,68.775 74.713,65.676 73.913,65.676 73.913,64.676" style="fill:none;stroke-width:0.050000mm;stroke:black"/>
<polygon points="78.963,64.676 78.963,65.676 78.163,65.676 78.163,68.775 78.963,68.775 78.963,74.576 78.163,74.576 78.163,77.676 78.963,77.676 78.963,78.676 92.963,78.676 92.963,77.676 93.763,77.676 93.763,74.576 92.963,74.576 92.963,68.775 93.763,68.775 93.763,65.676 92.963,65.676 92.963,64.676" style="fill:none;stroke-width:0.050000mm;stroke:black"/>
<polygon points="98.013,64.676 98.013,65.676 97.213,65.676 97.213,68.775 98.013,68.775 98.013,74.576 97.213,74.576 97.213,77.676 98.013,77.676 98.013,78.676 112.013,78.676 112.013,77.676 112.813,77.676 112.813,74.576 112.013,74.576 112.013,68.775 112.813,68.775 112.813,65.676 112.013,65.676 112.013,64.676" style="fill:none;stroke-width:0.050000mm;stroke:black"/>
<polygon points="117.063,64.676 117.063,65.676 116.263,65.676 116.263,68.775 117.063,68.775 117.063,74.576 116.263,74.576 116.263,77.676 117.063,77.676 117.063,78.676 131.063,78.676 131.063,77.676 131.863,77.676 131.863,74.576 131.063,74.576 131.063,68.775 131.863,68.775 131.863,65.676 131.063,65.676 131.063,64.676" style="fill:none;stroke-width:0.050000mm;stroke:black"/>
<polygon points="136.113,64.676 136.113,65.676 135.313,65.676 135.313,68.775 136.113,68.775 136.113,74.576 135.313,74.576 135.313,77.676 136.113,77.676 136.113,78.676 150.113,78.676 150.113,77.676 150.913,77.676 150.913,74.576 150.113,74.576 150.113,68.775 150.913,68.775 150.913,65.676 150.113,65.676 150.113,64.676" style="fill:none;stroke-width:0.050000mm;stroke:black"/>
<polygon points="155.163,64.676 155.163,65.676 154.363,65.676 154.363,68.775 155.163,68.775 155.163,74.576 154.363,74.576 154.363,77.676 155.163,77.676 155.163,78.676 169.163,78.676 169.163,77.676 169.963,77.676 169.963,74.576 169.163,74.576 169.163,68.775 169.963,68.775 169.963,65.676 169.163,65.676 169.163,64.676" style="fill:none;stroke-width:0.050000mm;stroke:black"/>
<polygon points="174.213,64.676 174.213,65.676 173.413,65.676 173.413,68.775 174.213,68.775 174.213,74.576 173.413,74.576 173.413,77.676 174.213,77.676 174.213,78.676 188.213,78.676 188.213,77.676 189.013,77.676 189.013,74.576 188.213,74.576 188.213,68.775 189.013,68.775 189.013,65.676 188.213,65.676 188.213,64.676" style="fill:none;stroke-width:0.050000mm;stroke:black"/>
<polygon points="193.263,64.676 193.263,65.676 192.463,65.676 192.463,68.775 193.263,68.775 193.263,74.576 192.463,74.576 192.463,77.676 193.263,77.676 193.263,78.676 207.263,78.676 207.263,77.676 208.063,77.676 208.063,74.576 207.263,74.576 207.263,68.775 208.063,68.775 208.063,65.676 207.263,65.676 207.263,64.676" style="fill:none;stroke-width:0.050000mm;stroke:black"/>
<polygon points="212.313,64.676 212.313,65.676 211.513,65.676 211.513,68.775 212.313,68.775 212.313,74.576 211.513,74.576 211.513,77.676 212.313,77.676 212.313,78.676 226.313,78.676 226.313,77.676 227.113,77.676 227.113,74.576 226.313,74.576 226.313,68.775 227.113,68.775 227.113,65.676 226.313,65.676 226.313,64.676" style="fill:none;stroke-width:0.050000mm;stroke:black"/>
<polygon points="236.126,64.676 236.126,65.676 235.326,65.676 235.326,68.775 236.126,68.775 236.126,74.576 235.326,74.576 235.326,77.676 236.126,77.676 236.126,78.676 250.126,78.676 250.126,77.676 250.926,77.676 250.926,74.576 250.126,74.576 250.126,68.775 250.926,68.775 250.926,65.676 250.126,65.676 250.126,64.676" style="fill:none;stroke-width:0.050000mm;stroke:black"/>
<polygon points="231.363,45.626 231.363,46.626 230.563,46.626 230.563,49.726 231.363,49.726 231.363,50.326 229.838,50.326 229.838,47.096 223.088,47.096 223.088,50.326 222.263,50.326 222.263,53.126 223.088,53.126 223.088,59.395 224.813,59.395 224.813,60.596 228.113,60.596 228.113,59.395 229.838,59.395 229.838,54.926 231.363,54.926 231.363,55.526 230.563,55.526 230.563,58.626 231.363,58.626 231.363,59.626 245.363,59.626 245.363,58.626 246.163,58.626 246.163,55.526 245.363,55.526 245.363,54.926 246.888,54.926 246.888,59.395 248.613,59.395 248.613,60.596 251.913,60.596 251.913,59.395 253.638,59.395 253.638,53.126 254.463,53.126 254.463,50.326 253.638,50.326 253.638,47.096 246.888,47.096 246.888,50.326 245.363,50.326 245.363,49.726 246.163,49.726 246.163,46.626 245.363,46.626 245.363,45.626" style="fill:none;stroke-width:0.050000mm;stroke:black"/>
<polygon points="12.288,45.626 12.288,46.626 11.488,46.626 11.488,49.726 12.288,49.726 12.288,55.526 11.488,55.526 11.488,58.626 12.288,58.626 12.288,59.626 26.288,59.626 26.288,58.626 27.088,58.626 27.088,55.526 26.288,55.526 26.288,49.726 27.088,49.726 27.088,46.626 26.288,46.626 26.288,45.626" style="fill:none;stroke-width:0.050000mm;stroke:black"/>
<polygon points="31.338,45.626 31.338,46.626 30.538,46.626 30.538,49.726 31.338,49.726 31.338,55.526 30.538,55.526 30.538,58.626 31.338,58.626 31.338,59.626 45.338,59.626 45.338,58.626 46.138,58.626 46.138,55.526 45.338,55.526 45.338,49.726 46.138,49.726 46.138,46.626 45.338,46.626 45.338,45.626" style="fill:none;stroke-width:0.050000mm;stroke:black"/>
<polygon points="50.388,45.626 50.388,46.626 49.588,46.626 49.588,49.726 50.388,49.726 50.388,55.526 49.588,55.526 49.588,58.626 50.388,58.626 50.388,59.626 64.388,59.626 64.388,58.626 65.188,58.626 65.188,55.526 64.388,55.526 64.388,49.726 65.188,49.726 65.188,46.626 64.388,46.626 64.388,45.626" style="fill:none;stroke-width:0.050000mm;stroke:black"/>
<polygon points="69.438,45.626 69.438,46.626 68.638,46.626 68.638,49.726 69.438,49.726 69.438,55.526 68.638,55.526 68.638,58.626 69.438,58.626 69.438,59.626 83.438,59.626 83.438,58.626 84.238,58.626 84.238,55.526 83.438,55.526 83.438,49.726 84.238,49.726 84.238,46.626 83.438,46.626 83.438,45.626" style="fill:none;stroke-width:0.050000mm;stroke:black"/>
<polygon points="88.488,45.626 88.488,46.626 87.688,46.626 87.688,49.726 88.488,49.726 88.488,55.526 87.688,55.526 87.688,58.626 88.488,58.626 88.488,59.626 102.488,59.626 102.488,58.626 103.288,58.626 103.288,55.526 102.488,55.526 102.488,49.726 103.288,49.726 103.288,46.626 102.488,46.626 102.488,45.626" style="fill:none;stroke-width:0.050000mm;stroke:black"/>
<polygon points="107.538,45.626 107.538,46.626 106.738,46.626 106.738,49.726 107.538,49.726 107.538,55.526 106.738,55.526 106.738,58.626 107.538,58.626 107.538,59.626 121.538,59.626 121.538,58.626 122.338,58.626 122.338,55.526 121.538,55.526 121.538,49.726 122.338,49.726 122.338,46.626 121.538,46.626 121.538,45.626" style="fill:none;stroke-width:0.050000mm;stroke:black"/>
<polygon points="126.588,45.626 126.588,46.626 125.788,46.626 125.788,49.726 126.588,49.726 126.588,55.526 125.788,55.526 125.788,58.626 126.588,58.626 126.588,59.626 140.588,59.626 140.588,58.626 141.388,58.626 141.388,55.526 140.588,55.526 140.588,49.726 141.388,49.726 141.388,46.626 140.588,46.626 140.588,45.626" style="fill:none;stroke-width:0.050000mm;stroke:black"/>
<polygon points="145.638,45.626 145.638,46.626 144.838,46.626 144.838,49.726 145.638,49.726 145.638,55.526 144.838,55.526 144.838,58.626 145.638,58.626 145.638,59.626 159.638,59.626 159.638,58.626 160.438,58.626 160.438,55.526 159.638,55.526 159.638,49.726 160.438,49.726 160.438,46.626 159.638,46.626 159.638,45.626" style="fill:none;stroke-width:0.050000mm;stroke:black"/>
<polygon points="164.688,45.626 164.688,46.626 163.888,46.626 163.888,49.726 164.688,49.726 164.688,55.526 163.888,55.526 163.888,58.626 164.688,58.626 164.688,59.626 178.688,59.626 178.688,58.626 179.488,58.626 179.488,55.526 178.688,55.526 178.688,49.726 179.488,49.726 179.488,46.626 178.688,46.626 178.688,45.626" style="fill:none;stroke-width:0.050000mm;stroke:black"/>
<polygon points="183.738,45.626 183.738,46.626 182.938,46.626 182.938,49.726 183.738,49.726 183.738,55.526 182.938,55.526 182.938,58.626 183.738,58.626 183.738,59.626 197.738,59.626 197.738,58.626 198.538,58.626 198.538,55.526 197.738,55.526 197.738,49.726 198.538,49.726 198.538,46.626 197.738,46.626 197.738,45.626" style="fill:none;stroke-width:0.050000mm;stroke:black"/>
<polygon points="202.788,45.626 202.788,46.626 201.988,46.626 201.988,49.726 202.788,49.726 202.788,55.526 201.988,55.526 201.988,58.626 202.788,58.626 202.788,59.626 216.788,59.626 216.788,58.626 217.588,58.626 217.588,55.526 216.788,55.526 216.788,49.726 217.588,49.726 217.588,46.626 216.788,46.626 216.788,45.626" style="fill:none;stroke-width:0.050000mm;stroke:black"/>
<polygon points="259.938,45.626 259.938,46.626 259.138,46.626 259.138,49.726 259.938,49.726 259.938,55.526 259.138,55.526 259.138,58.626 259.938,58.626 259.938,59.626 273.938,59.626 273.938,58.626 274.738,58.626 274.738,55.526 273.938,55.526 273.938,49.726 274.738,49.726 274.738,46.626 273.938,46.626 273.938,45.626" style="fill:none;stroke-width:0.050000mm;stroke:black"/>
<polygon points="7.526,26.576 7.526,27.576 6.726,27.576 6.726,30.676 7.526,30.676 7.526,36.476 6.726,36.476 6.726,39.576 7.526,39.576 7.526,40.576 21.526,40.576 21.526,39.576 22.326,39.576 22.326,36.476 21.526,36.476 21.526,30.676 22.326,30.676 22.326,27.576 21.526,27.576 21.526,26.576" style="fill:none;stroke-width:0.050000mm;stroke:black"/>
<polygon points="26.576,26.576 26.576,27.576 25.776,27.576 25.776,30.676 26.576,30.676 26.576,36.476 25.776,36.476 25.776,39.576 26.576,39.576 26.576,40.576 40.576,40.576 40.576,39.576 41.376,39.576 41.376,36.476 40.576,36.476 40.576,30.676 41.376,30.676 41.376,27.576 40.576,27.576 40.576,26.576" style="fill:none;stroke-width:0.050000mm;stroke:black"/>
<polygon points="45.626,26.576 45.626,27.576 44.826,27.576 44.826,30.676 45.626,30.676 45.626,36.476 44.826,36.476 44.826,39.576 45.626,39.576 45.626,40.576 59.626,40.576 59.626,39.576 60.426,39.576 60.426,36.476 59.626,36.476 59.626,30.676 60.426,30.676 60.426,27.576 59.626,27.576 59.626,26.576" style="fill:none;stroke-width:0.050000mm;stroke:black"/>
<polygon points="64.676,26.576 64.676,27.576 63.876,27.576 63.876,30.676 64.676,30.676 64.676,36.476 63.876,36.476 63.876,39.576 64.676,39.576 64.676,40.576 78.676,40.576 78.676,39.576 79.476,39.576 79.476,36.476 78.676,36.476 78.676,30.676 79.476,30.676 79.476,27.576 78.676,27.576 78.676,26.576" style="fill:none;stroke-width:0.050000mm;stroke:black"/>
<polygon points="83.726,26.576 83.726,27.576 82.926,27.576 82.926,30.676 83.726,30.676 83.726,36.476 82.926,36.476 82.926,39.576 83.726,39.576 83.726,40.576 97.726,40.576 97.726,39.576 98.525,39.576 98.525,36.476 97.726,36.476 97.726,30.676 98.525,30.676 98.525,27.576 97.726,27.576 97.726,26.576" style="fill:none;stroke-width:0.050000mm;stroke:black"/>
<polygon points="102.775,26.576 102.775,27.576 101.976,27.576 101.976,30.676 102.775,30.676 102.775,36.476 101.976,36.476 101.976,39.576 102.775,39.576 102.775,40.576 116.775,40.576 116.775,39.576 117.575,39.576 117.575,36.476 116.775,36.476 116.775,30.676 117.575,30.676 117.575,27.576 116.775,27.576 116.775,26.576" style="fill:none;stroke-width:0.050000mm;stroke:black"/>
<polygon points="121.825,26.576 121.825,27.576 121.025,27.576 121.025,30.676 121.825,30.676 121.825,36.476 121.025,36.476 121.025,39.576 121.825,39.576 121.825,40.576 135.826,40.576 135.826,39.576 136.626,39.576 136.626,36.476 135.826,36.476 135.826,30.676 136.626,30.676 136.626,27.576 135.826,27.576 135.826,26.576" style="fill:none;stroke-width:0.050000mm;stroke:black"/>
<polygon points="140.876,26.576 140.876,27.576 140.076,27.576 140.076,30.676 140.876,30.676 140.876,36.476 140.076,36.476 140.076,39.576 140.876,39.576 140.876,40.576 154.876,40.576 154.876,39.576 155.676,39.576 155.676,36.476 154.876,36.476 154.876,30.676 155.676,30.676 155.676,27.576 154.876,27.576 154.876,26.576" style="fill:none;stroke-width:0.050000mm;stroke:black"/>
<polygon points="159.926,26.576 159.926,27.576 159.126,27.576 159.126,30.676 159.926,30.676 159.926,36.476 159.126,36.476 159.126,39.576 159.926,39.576 159.926,40.576 173.926,40.576 173.926,39.576 174.726,39.576 174.726,36.476 173.926,36.476 173.926,30.676 174.726,30.676 174.726,27.576 173.926,27.576 173.926,26.576" style="fill:none;stroke-width:0.050000mm;stroke:black"/>
<polygon points="178.976,26.576 178.976,27.576 178.176,27.576 178.176,30.676 178.976,30.676 178.976,36.476 178.176,36.476 178.176,39.576 178.976,39.576 178.976,40.576 192.976,40.576 192.976,39.576 193.776,39.576 193.776,36.476 192.976,36.476 192.976,30.676 193.776,30.676 193.776,27.576 192.976,27.576 192.976,26.576" style="fill:none;stroke-width:0.050000mm;stroke:black"/>
<polygon points="198.026,26.576 198.026,27.576 197.226,27.576 197.226,30.676 198.026,30.676 198.026,36.476 197.226,36.476 197.226,39.576 198.026,39.576 198.026,40.576 212.026,40.576 212.026,39.576 212.826,39.576 212.826,36.476 212.026,36.476 212.026,30.676 212.826,30.676 212.826,27.576 212.026,27.576 212.026,26.576" style="fill:none;stroke-width:0.050000mm;stroke:black"/>
<polygon points="217.076,26.576 217.076,27.576 216.276,27.576 216.276,30.676 217.076,30.676 217.076,36.476 216.276,36.476 216.276,39.576 217.076,39.576 217.076,40.576 231.076,40.576 231.076,39.576 231.876,39.576 231.876,36.476 231.076,36.476 231.076,30.676 231.876,30.676 231.876,27.576 231.076,27.576 231.076,26.576" style="fill:none;stroke-width:0.050000mm;stroke:black"/>
<polygon points="236.126,26.576 236.126,27.576 235.326,27.576 235.326,30.676 236.126,30.676 236.126,36.476 235.326,36.476 235.326,39.576 236.126,39.576 236.126,40.576 250.126,40.576 250.126,39.576 250.926,39.576 250.926,36.476 250.126,36.476 250.126,30.676 250.926,30.676 250.926,27.576 250.126,27.576 250.126,26.576" style="fill:none;stroke-width:0.050000mm;stroke:black"/>
<polygon points="255.176,26.576 255.176,27.576 254.376,27.576 254.376,30.676 255.176,30.676 255.176,36.476 254.376,36.476 254.376,39.576 255.176,39.576 255.176,40.576 269.176,40.576 269.176,39.576 269.976,39.576 269.976,36.476 269.176,36.476 269.176,30.676 269.976,30.676 269.976,27.576 269.176,27.576 269.176,26.576" style="fill:none;stroke-width:0.050000mm;stroke:black"/>
<polygon points="17.051,7.526 17.051,8.526 16.251,8.526 16.251,11.626 17.051,11.626 17.051,17.426 16.251,17.426 16.251,20.526 17.051,20.526 17.051,21.526 31.051,21.526 31.051,20.526 31.851,20.526 31.851,17.426 31.051,17.426 31.051,11.626 31.851,11.626 31.851,8.526 31.051,8.526 31.051,7.526" style="fill:none;stroke-width:0.050000mm;stroke:black"/>
<polygon points="36.101,7.526 36.101,8.526 35.301,8.526 35.301,11.626 36.101,11.626 36.101,17.426 35.301,17.426 35.301,20.526 36.101,20.526 36.101,21.526 50.101,21.526 50.101,20.526 50.901,20.526 50.901,17.426 50.101,17.426 50.101,11.626 50.901,11.626 50.901,8.526 50.101,8.526 50.101,7.526" style="fill:none;stroke-width:0.050000mm;stroke:black"/>
<polygon points="55.151,7.526 55.151,8.526 54.351,8.526 54.351,11.626 55.151,11.626 55.151,17.426 54.351,17.426 54.351,20.526 55.151,20.526 55.151,21.526 69.151,21.526 69.151,20.526 69.951,20.526 69.951,17.426 69.151,17.426 69.151,11.626 69.951,11.626 69.951,8.526 69.151,8.526 69.151,7.526" style="fill:none;stroke-width:0.050000mm;stroke:black"/>
<polygon points="74.201,7.526 74.201,8.526 73.401,8.526 73.401,11.626 74.201,11.626 74.201,17.426 73.401,17.426 73.401,20.526 74.201,20.526 74.201,21.526 88.201,21.526 88.201,20.526 89.001,20.526 89.001,17.426 88.201,17.426 88.201,11.626 89.001,11.626 89.001,8.526 88.201,8.526 88.201,7.526" style="fill:none;stroke-width:0.050000mm;stroke:black"/>
<polygon points="93.251,7.526 93.251,8.526 92.451,8.526 92.451,11.626 93.251,11.626 93.251,17.426 92.451,17.426 92.451,20.526 93.251,20.526 93.251,21.526 107.251,21.526 107.251,20.526 108.051,20.526 108.051,17.426 107.251,17.426 107.251,11.626 108.051,11.626 108.051,8.526 107.251,8.526 107.251,7.526" style="fill:none;stroke-width:0.050000mm;stroke:black"/>
<polygon points="112.301,7.526 112.301,8.526 111.501,8.526 111.501,11.626 112.301,11.626 112.301,17.426 111.501,17.426 111.501,20.526 112.301,20.526 112.301,21.526 126.301,21.526 126.301,20.526 127.101,20.526 127.101,17.426 126.301,17.426 126.301,11.626 127.101,11.626 127.101,8.526 126.301,8.526 126.301,7.526" style="fill:none;stroke-width:0.050000mm;stroke:black"/>
<polygon points="131.351,7.526 131.351,8.526 130.550,8.526 130.550,11.626 131.351,11.626 131.351,17.426 130.550,17.426 130.550,20.526 131.351,20.526 131.351,21.526 145.351,21.526 145.351,20.526 146.151,20.526 146.151,17.426 145.351,17.426 145.351,11.626 146.151,11.626 146.151,8.526 145.351,8.526 145.351,7.526" style="fill:none;stroke-width:0.050000mm;stroke:black"/>
<polygon points="150.401,7.526 150.401,8.526 149.601,8.526 149.601,11.626 150.401,11.626 150.401,17.426 149.601,17.426 149.601,20.526 150.401,20.526 150.401,21.526 164.401,21.526 164.401,20.526 165.201,20.526 165.201,17.426 164.401,17.426 164.401,11.626 165.201,11.626 165.201,8.526 164.401,8.526 164.401,7.526" style="fill:none;stroke-width:0.050000mm;stroke:black"/>
<polygon points="169.451,7.526 169.451,8.526 168.651,8.526 168.651,11.626 169.451,11.626 169.451,17.426 168.651,17.426 168.651,20.526 169.451,20.526 169.451,21.526 183.451,21.526 183.451,20.526 184.251,20.526 184.251,17.426 183.451,17.426 183.451,11.626 184.251,11.626 184.251,8.526 183.451,8.526 183.451,7.526" style="fill:none;stroke-width:0.050000mm;stroke:black"/>
<polygon points="188.501,7.526 188.501,8.526 187.701,8.526 187.701,11.626 188.501,11.626 188.501,17.426 187.701,17.426 187.701,20.526 188.501,20.526 188.501,21.526 202.501,21.526 202.501,20.526 203.301,20.526 203.301,17.426 202.501,17.426 202.501,11.626 203.301,11.626 203.301,8.526 202.501,8.526 202.501,7.526" style="fill:none;stroke-width:0.050000mm;stroke:black"/>
<polygon points="207.551,7.526 207.551,8.526 206.751,8.526 206.751,11.626 207.551,11.626 207.551,17.426 206.751,17.426 206.751,20.526 207.551,20.526 207.551,21.526 221.551,21.526 221.551,20.526 222.351,20.526 222.351,17.426 221.551,17.426 221.551,11.626 222.351,11.626 222.351,8.526 221.551,8.526 221.551,7.526" style="fill:none;stroke-width:0.050000mm;stroke:black"/>
<polygon points="226.601,7.526 226.601,8.526 225.801,8.526 225.801,11.626 226.601,11.626 226.601,17.426 225.801,17.426 225.801,20.526 226.601,20.526 226.601,21.526 240.601,21.526 240.601,20.526 241.401,20.526 241.401,17.426 240.601,17.426 240.601,11.626 241.401,11.626 241.401,8.526 240.601,8.526 240.601,7.526" style="fill:none;stroke-width:0.050000mm;stroke:black"/>
<polygon points="245.651,7.526 245.651,8.526 244.851,8.526 244.851,11.626 245.651,11.626 245.651,17.426 244.851,17.426 244.851,20.526 245.651,20.526 245.651,21.526 259.650,21.526 259.650,20.526 260.451,20.526 260.451,17.426 259.650,17.426 259.650,11.626 260.451,11.626 260.451,8.526 259.650,8.526 259.650,7.526" style="fill:none;stroke-width:0.050000mm;stroke:black"/>
</svg>
